# xmcd CD database file
#
# Track frame offsets:
#        150
#        12286
#        28310
#        44294
#        54714
#        71526
#        82746
#        95594
#        106326
#        115138
#
# Disc length: 1772 seconds
#
# Revision: 0
# Processed by: cddbd v1.5.2PL0 Copyright (c) Steve Scherf et al.
# Submitted via: CUERipper 2.1.5
#
DISCID=7c06ea0a
DTITLE=Ed Shipman - No Complications
DYEAR=2005
DGENRE=Blue Grass
TTITLE0=No Complications
TTITLE1=Syncopated Off-Beat Backing Man (Clarence White (1944-1973))
TTITLE2=Biscuit Boy's Lament
TTITLE3=Cowboy Logic
TTITLE4=The Bes You Ca Do
TTITLE5=Moose Shoes
TTITLE6=Escape
TTITLE7=Going Nowhere
TTITLE8=Fear Factor 
TTITLE9=Michael Cycle
EXTD=
EXTT0=
EXTT1=
EXTT2=
EXTT3=
EXTT4=
EXTT5=
EXTT6=
EXTT7=
EXTT8=
EXTT9=
PLAYORDER=
